<?xml version="1.0" encoding="utf-8"?><svg viewBox="0 0 900 600" xmlns="http://www.w3.org/2000/svg" xmlns:xlink="http://www.w3.org/1999/xlink"><style>:root>svg{display:none}:root>svg:target{display:block}</style><svg fill="none" viewBox="0 0 287 63" id="about-logo" xmlns="http://www.w3.org/2000/svg"><path d="M28.022 63l-1.328-.483c-.708-.255-17.383-6.426-22.3-20.176C1.978 35.585.58 21.41.522 20.811L0 15.418l40.346 12.32-21.22 13.154-4.08-6.014 7.93-4.919L8.63 25.578c.597 4.566 1.593 10.898 2.863 14.448 3.071 8.586 12.926 13.638 16.529 15.235 3.598-1.592 13.462-6.645 16.533-15.235 1.531-4.284 2.664-12.628 3.182-17.019L12.139 12.154 33.669 0l3.814 6.175-7.111 4.011L55.8 17.94l-.274 2.87c-.062.6-1.456 14.775-3.873 21.531-4.916 13.75-21.596 19.921-22.304 20.176L28.022 63z" fill="#FF6F42"/><path d="M81.791 46.054c.898 0 1.676.137 2.333.413.667.276 1.179.667 1.536 1.174.358.507.536 1.108.536 1.801 0 .685-.178 1.286-.536 1.801-.357.508-.87.899-1.536 1.175-.657.266-1.434.4-2.333.4h-2.043v2.575H77.4v-9.34h4.391zm-.13 5.003c.705 0 1.241-.138 1.608-.414.367-.285.55-.685.55-1.2 0-.525-.183-.926-.55-1.201-.367-.285-.903-.427-1.608-.427h-1.913v3.242h1.913zM93.753 53.392h-4.71l-.898 2H85.74l4.52-9.338h2.32l4.535 9.339h-2.463l-.899-2.002zm-.739-1.642l-1.608-3.575-1.609 3.576h3.217zM104.34 55.393l-1.956-2.602h-2.159v2.602h-2.347v-9.34h4.39c.899 0 1.676.139 2.333.414.667.276 1.179.667 1.536 1.174.358.507.536 1.108.536 1.801 0 .694-.183 1.295-.55 1.801-.358.499-.87.881-1.536 1.148l2.275 3.002h-2.522zm-.043-5.95c0-.525-.184-.926-.551-1.201-.367-.285-.903-.427-1.608-.427h-1.913v3.255h1.913c.705 0 1.241-.142 1.608-.427.367-.285.551-.685.551-1.2zM110.203 47.815h-3.246v-1.761h8.84v1.76h-3.246v7.579h-2.348v-7.578zM125.496 55.553c-1.053 0-2.004-.21-2.855-.627-.84-.418-1.502-.992-1.985-1.721a4.503 4.503 0 01-.71-2.482c0-.916.237-1.739.71-2.468.483-.738 1.145-1.316 1.985-1.734.851-.418 1.802-.627 2.855-.627s2 .209 2.84.627c.841.418 1.502.996 1.985 1.734.484.73.725 1.552.725 2.468 0 .916-.241 1.744-.725 2.482-.483.73-1.144 1.303-1.985 1.72-.84.419-1.787.628-2.84.628zm0-1.841a3.49 3.49 0 001.623-.374c.483-.258.86-.614 1.13-1.067.28-.454.421-.97.421-1.548 0-.578-.141-1.094-.421-1.547a2.754 2.754 0 00-1.13-1.054 3.39 3.39 0 00-1.623-.387 3.39 3.39 0 00-1.623.387c-.483.249-.864.6-1.145 1.054-.27.453-.405.97-.405 1.547 0 .578.135 1.094.405 1.548.281.453.662.81 1.145 1.067a3.49 3.49 0 001.623.374zM134.868 47.788v2.468h4.695v1.735h-4.695v3.402h-2.348v-9.34h7.666v1.735h-5.318zM182.704 51.353a2.345 2.345 0 00-.528-.556 3.936 3.936 0 00-.675-.408 6.649 6.649 0 00-.711-.296l-.72-.24c-.969-.318-2.589-.853-3.163-1.139-.367-.182-.579-.453-.579-.738 0-1.155 2.243-1.527 4.611-1.527h1.958l.275-1.437s-1.449-.011-3.023 0c-1.471.01-2.957.138-3.387.23-.361.077-.723.18-1.071.307-.329.118-.648.27-.95.449a3.595 3.595 0 00-.769.605 2.678 2.678 0 00-.545.836c-.1.243-.151.484-.155.717a1.71 1.71 0 00.233.907c.115.196.274.375.49.546.218.173.459.3.642.39.197.098.421.19.681.279.218.076.455.148.746.23.26.073.528.141.778.205l.117.03c.216.056.44.112.658.17.289.079.522.147.732.215.249.08.461.157.649.237.082.035.164.072.241.11.176.092.317.185.432.283.025.019.048.042.074.068.06.064.107.132.144.2a.832.832 0 01.048.163 1.11 1.11 0 01-.006.214c-.132.648-.786 1.383-4.626 1.383l-2.1.002c-1.377.002-2.916.004-3.637.002a199.84 199.84 0 01-1.155-1.484l-.649-.856c.23-.002.431-.02.63-.05a4.137 4.137 0 001.308-.45c.853-.462 1.556-1.19 1.927-1.998.41-.89.436-1.816.075-2.538a2.417 2.417 0 00-.803-.931 2.75 2.75 0 00-1.209-.45c-.065-.007-.189-.025-3.649-.03-2.231-.005-5.429-.002-5.461-.002h-.366l-.384 1.444h1.327l-1.914 7.34c-1.146-.007-4.605-.03-5.261-.03-.581 0-1.05-.082-1.432-.251a2.811 2.811 0 01-.691-.445c-.199-.191-.363-.401-.489-.627a2.76 2.76 0 01-.268-.781 3.38 3.38 0 01-.019-.918 4.35 4.35 0 01.26-.992c.136-.328.31-.65.52-.956.212-.298.459-.584.734-.846.767-.735 2.272-1.511 4.196-1.494h1.729l.386-1.444h-3.717c-1.234 0-2.265.198-3.156.606a7.454 7.454 0 00-2.385 1.748c-.684.75-1.185 1.626-1.447 2.53-.266.918-.274 1.87-.019 2.687a3.53 3.53 0 001.39 1.918c.759.532 1.744.77 3.19.77l.965.004c.897.003 2.259.01 3.519.01.84 0 1.635-.003 2.219-.01 1.174-.016 2.323-.899 2.614-2.011l1.774-6.806c.84.002 2.898 0 3.772 0 .673 0 1.08.352 1.21.976.038.181.033.354.021.467a1.989 1.989 0 01-.245.778c-.17.313-.359.496-.449.583l-.002.002a3.226 3.226 0 01-.438.344c-.166.101-.34.187-.505.251a2.7 2.7 0 01-.512.12 3.663 3.663 0 01-.22.016h-2.234l-.566 2.186 1.054-.576 2.209 2.938c.35.465.925.732 1.577.732h8.776c1.718 0 3.106-.257 4.129-.763.811-.4 1.358-.956 1.501-1.524.077-.304.094-.605.05-.899a1.748 1.748 0 00-.281-.725z" fill="#171717"/><path fill-rule="evenodd" clip-rule="evenodd" d="M77.4 30.6V5.4h14.146c4.348 0 9.369.225 11.628 3.94.723 1.189 1.226 2.702 1.226 4.61 0 6.75-5.4 8.55-5.4 8.55l6.3 8.1h-9l-4.5-7.2h-7.2v7.2h-7.2zm7.2-20.7v9h8.1s4.5 0 4.5-4.5-4.5-4.5-4.5-4.5h-8.1zM140.4 30.6V5.4h18s7.2 0 7.2 6.3-7.2 6.3-7.2 6.3 9 0 9 6.3-9 6.3-9 6.3h-18zm7.2-15.3V9.9h7.2s2.7 0 2.7 2.7-2.7 2.7-2.7 2.7h-7.2zm9 11.7h-9v-5.4h9s2.7 0 2.7 2.7-2.7 2.7-2.7 2.7z" fill="#171717"/><path d="M109.8 5.4h23.4v4.5H117v5.4h14.4v5.4H117v5.4h16.2v4.5h-23.4V5.4z" fill="#171717"/><path fill-rule="evenodd" clip-rule="evenodd" d="M203.4 18c0 6.96-7.253 12.6-16.2 12.6S171 24.96 171 18c0-6.958 7.253-12.6 16.2-12.6s16.2 5.642 16.2 12.6zm-6.3 0c0 3.977-4.432 7.2-9.9 7.2-5.467 0-9.9-3.223-9.9-7.2 0-3.976 4.433-7.2 9.9-7.2 5.468 0 9.9 3.224 9.9 7.2z" fill="#171717"/><path d="M235.8 30.6h-9l-6.75-7.56-6.75 7.56h-9L215.55 18 204.3 5.4h9l22.5 25.2zM235.8 5.4h-9l-4.95 5.544 4.5 5.04L235.8 5.4zM244.8 5.4h3.6v25.2h-3.6V5.4zM252 9V5.4h21.6V9h-9v21.6H261V9h-9zM275.4 26.25h4.35v1.45h-1.45v2.9h-1.45v-2.9h-1.45v-1.45zM283.976 28l1.574-1.574v-.176H287v4.35h-1.45v-2.123l-.549.55.008.007-1.025 1.026-1.334-1.334V30.6h-1.45v-4.35h1.45v.425l1.326 1.326z" fill="#171717"/></svg><svg fill="none" viewBox="0 0 36 16" id="applepay" xmlns="http://www.w3.org/2000/svg"><path fill-rule="evenodd" clip-rule="evenodd" d="M5.075 3.4c.653.054 1.305-.33 1.713-.82.401-.502.666-1.176.598-1.864-.577.028-1.291.386-1.699.888-.374.433-.693 1.135-.612 1.795zm7.762 8.86V1.535h3.976c2.052 0 3.486 1.43 3.486 3.522 0 2.091-1.46 3.536-3.54 3.536h-2.277v3.667h-1.645zM7.379 3.53c-.574-.034-1.099.175-1.523.343-.272.109-.503.2-.679.2-.197 0-.437-.096-.707-.205-.354-.142-.758-.305-1.182-.297-.972.014-1.876.571-2.372 1.459-1.02 1.775-.265 4.403.72 5.847.483.716 1.06 1.5 1.822 1.473.335-.013.576-.117.825-.224.287-.123.585-.251 1.05-.251.45 0 .735.125 1.009.245.26.113.51.223.881.216.788-.014 1.285-.716 1.767-1.431.52-.768.75-1.517.784-1.631l.004-.013-.018-.01c-.174-.08-1.505-.697-1.518-2.35-.012-1.388 1.056-2.09 1.224-2.202l.02-.013c-.68-1.018-1.74-1.129-2.107-1.156zm15.924 8.813c1.033 0 1.992-.53 2.427-1.369h.034v1.287h1.522V6.922c0-1.548-1.223-2.546-3.106-2.546-1.747 0-3.038 1.012-3.085 2.401h1.481c.122-.66.727-1.093 1.556-1.093 1.006 0 1.57.474 1.57 1.348v.592l-2.052.124c-1.91.116-2.943.908-2.943 2.284 0 1.39 1.067 2.311 2.596 2.311zm.442-1.273c-.877 0-1.434-.426-1.434-1.08 0-.674.537-1.066 1.563-1.128l1.828-.117v.606c0 1.004-.842 1.72-1.957 1.72zm8.59 1.61c-.659 1.878-1.413 2.497-3.017 2.497-.122 0-.53-.013-.625-.04V13.85c.102.013.353.027.482.027.727 0 1.135-.31 1.387-1.114l.15-.475-2.787-7.808h1.72l1.936 6.336h.034l1.937-6.336h1.672l-2.888 8.2zM14.482 2.938h1.897c1.427 0 2.242.771 2.242 2.126 0 1.356-.815 2.133-2.25 2.133h-1.889V2.938z" fill="#000"/></svg><svg fill="none" viewBox="0 0 28 28" id="best-price" xmlns="http://www.w3.org/2000/svg"><path d="M7.75 9.25a1.5 1.5 0 100-3 1.5 1.5 0 000 3z" stroke="#fff" stroke-width="2" stroke-linecap="round" stroke-linejoin="round"/><path d="M1 5.5v5.789c0 .805.32 1.578.89 2.148L14.063 25.61a3.038 3.038 0 004.296 0l7.251-7.25a3.038 3.038 0 000-4.296L13.435 1.888A3.037 3.037 0 0011.289 1H5.5A4.5 4.5 0 001 5.5v0z" stroke="#fff" stroke-width="2" stroke-linecap="round" stroke-linejoin="round"/></svg><svg fill="none" viewBox="0 0 198 44" id="footer-logo" xmlns="http://www.w3.org/2000/svg"><path d="M19.319 43.656l-.915-.333c-.488-.176-11.985-4.43-15.374-13.91C1.364 24.755.4 14.983.36 14.57L0 10.851l27.816 8.493-14.63 9.07-2.813-4.146 5.468-3.391-9.892-3.021c.412 3.147 1.099 7.512 1.974 9.96 2.118 5.92 8.912 9.403 11.396 10.503 2.48-1.097 9.281-4.58 11.399-10.503 1.055-2.953 1.836-8.706 2.193-11.733L8.37 8.6 23.212.22l2.63 4.258-4.903 2.765L38.47 12.59l-.189 1.98c-.043.412-1.004 10.185-2.67 14.843-3.39 9.48-14.888 13.734-15.377 13.91l-.915.333z" fill="#FF6F42"/><path d="M56.39 31.973c.619 0 1.155.095 1.608.285.46.19.812.46 1.059.81.246.35.37.763.37 1.242 0 .472-.124.886-.37 1.241-.247.35-.6.62-1.06.81-.452.184-.988.276-1.608.276h-1.408v1.775h-1.619v-6.439h3.027zm-.09 3.45c.486 0 .855-.096 1.108-.286.253-.196.38-.472.38-.828 0-.361-.127-.637-.38-.827-.253-.197-.622-.295-1.108-.295h-1.32v2.236h1.32zM64.636 37.032H61.39l-.62 1.38h-1.658l3.117-6.439h1.598l3.127 6.439h-1.698l-.62-1.38zm-.51-1.131l-1.108-2.465-1.109 2.465h2.218zM71.936 38.412l-1.35-1.794h-1.488v1.794H67.48v-6.439h3.027c.62 0 1.155.095 1.608.285.46.19.813.46 1.06.81.246.35.369.763.369 1.242 0 .478-.126.892-.38 1.241-.246.344-.6.607-1.059.791l1.569 2.07h-1.738zm-.03-4.102c0-.362-.127-.638-.38-.828-.253-.197-.623-.295-1.109-.295h-1.319v2.245h1.319c.486 0 .856-.099 1.109-.295.253-.196.38-.472.38-.828zM75.978 33.187H73.74v-1.214h6.094v1.214h-2.238v5.225h-1.618v-5.225zM86.521 38.522c-.726 0-1.382-.144-1.968-.432a3.44 3.44 0 01-1.369-1.187 3.102 3.102 0 01-.49-1.71c0-.632.164-1.2.49-1.702.333-.51.79-.908 1.369-1.196.586-.288 1.242-.432 1.968-.432s1.379.144 1.958.432c.58.288 1.036.687 1.369 1.196.333.503.5 1.07.5 1.702 0 .631-.167 1.201-.5 1.71a3.44 3.44 0 01-1.369 1.187c-.58.288-1.232.432-1.958.432zm0-1.27c.413 0 .786-.085 1.119-.257.333-.177.593-.423.78-.735.192-.313.289-.669.289-1.067a1.989 1.989 0 00-1.07-1.794 2.337 2.337 0 00-1.118-.267c-.413 0-.786.089-1.119.267a1.97 1.97 0 00-.79.727c-.186.312-.279.668-.279 1.067 0 .398.093.754.28 1.067.193.312.456.558.789.735.333.172.706.258 1.119.258zM92.982 33.169v1.702h3.237v1.195h-3.237v2.346h-1.618v-6.439h5.285v1.196h-3.667zM125.926 36.38a1.619 1.619 0 00-.364-.383 2.736 2.736 0 00-.465-.282 4.519 4.519 0 00-.491-.204c-.117-.04-.293-.098-.496-.165-.668-.22-1.785-.588-2.18-.785-.253-.126-.4-.313-.4-.51 0-.796 1.547-1.052 3.179-1.052h1.35l.19-.99s-.999-.009-2.085 0c-1.013.006-2.038.095-2.335.158a5.657 5.657 0 00-.738.211 3.835 3.835 0 00-.655.31c-.202.12-.38.26-.53.417a1.836 1.836 0 00-.376.576 1.385 1.385 0 00-.107.495c-.004.225.05.436.161.625.079.135.189.259.338.377.15.119.316.206.443.269.135.067.29.13.469.192.15.052.314.102.514.158.18.05.364.098.537.142l.08.02.454.118c.199.054.36.1.505.148.171.054.318.108.447.163.056.024.113.05.166.077.121.063.219.127.298.194.017.013.033.03.051.047a.662.662 0 01.099.138.546.546 0 01.033.112.67.67 0 01-.004.148c-.091.446-.542.953-3.189.953l-1.448.002c-.949 0-2.01.002-2.508 0-.42-.537-.701-.897-.796-1.022l-.447-.59a2.91 2.91 0 00.434-.035c.302-.047.613-.154.902-.31.588-.319 1.073-.82 1.329-1.378.282-.614.3-1.252.051-1.75a1.668 1.668 0 00-.554-.641 1.887 1.887 0 00-.833-.31c-.045-.005-.13-.017-2.515-.021-1.539-.003-3.743-.002-3.766-.002h-.252l-.265.996h.915l-1.319 5.061c-.79-.005-3.175-.021-3.628-.021-.4 0-.723-.057-.987-.173a1.927 1.927 0 01-.476-.307 1.85 1.85 0 01-.337-.432 1.895 1.895 0 01-.185-.539 2.34 2.34 0 01-.013-.633c.03-.226.091-.455.179-.683.094-.227.214-.448.359-.66.146-.205.316-.402.506-.583.529-.507 1.566-1.042 2.893-1.03h1.191l.267-.996h-2.563c-.851 0-1.561.137-2.176.419a5.134 5.134 0 00-1.644 1.205 4.466 4.466 0 00-.998 1.744c-.183.633-.188 1.29-.013 1.853.174.56.488.992.958 1.321.524.368 1.203.531 2.2.531l.665.003c.619.003 1.558.007 2.426.007.579 0 1.128-.002 1.53-.007.809-.01 1.602-.62 1.802-1.386l1.224-4.692h2.6c.464 0 .745.242.834.673.027.124.023.244.015.322-.017.183-.073.359-.169.536-.117.215-.248.341-.31.402l-.001.001c-.108.1-.205.174-.302.237-.115.07-.235.13-.348.173-.104.037-.22.065-.354.084a2.39 2.39 0 01-.151.01h-1.54l-.39 1.507.726-.397 1.523 2.026c.241.32.638.504 1.088.504h6.05c1.184 0 2.141-.177 2.846-.526.559-.276.937-.66 1.035-1.05a1.57 1.57 0 00.035-.62 1.215 1.215 0 00-.194-.5z" fill="#fff"/><path fill-rule="evenodd" clip-rule="evenodd" d="M53.362 21.319V3.945h9.753c2.998 0 6.46.155 8.017 2.716.498.82.845 1.863.845 3.178 0 4.654-3.723 5.895-3.723 5.895l4.343 5.585h-6.204l-3.103-4.964h-4.964v4.963h-4.964zm4.964-14.272v6.205h5.585s3.102 0 3.102-3.102c0-3.103-3.102-3.103-3.102-3.103h-5.585zM96.796 21.319V3.945h12.41s4.964 0 4.964 4.343c0 4.344-4.964 4.344-4.964 4.344s6.205 0 6.205 4.343-6.205 4.343-6.205 4.343h-12.41zm4.964-10.549V7.047h4.964s1.862 0 1.862 1.862c0 1.861-1.862 1.861-1.862 1.861h-4.964zm6.205 8.067h-6.205v-3.723h6.205s1.862 0 1.862 1.861-1.862 1.861-1.862 1.861z" fill="#fff"/><path d="M75.7 3.945h16.133v3.102h-11.17v3.723h9.929v3.723h-9.928v3.723h11.169v3.102H75.7V3.945z" fill="#fff"/><path fill-rule="evenodd" clip-rule="evenodd" d="M140.231 12.632c0 4.797-5.001 8.687-11.169 8.687-6.169 0-11.169-3.89-11.169-8.687 0-4.798 5-8.687 11.169-8.687 6.168 0 11.169 3.89 11.169 8.687zm-4.344 0c0 2.741-3.056 4.964-6.825 4.964-3.77 0-6.826-2.223-6.826-4.964 0-2.742 3.056-4.964 6.826-4.964 3.769 0 6.825 2.222 6.825 4.964z" fill="#fff"/><path d="M162.568 21.319h-6.205l-4.653-5.213-4.654 5.212h-6.205l7.756-8.686-7.756-8.687h6.205l15.512 17.373zM162.568 3.945h-6.205l-3.412 3.822 3.102 3.475 6.515-7.297zM168.773 3.945h2.482v17.373h-2.482V3.945zM173.737 6.427V3.945h14.892v2.482h-6.205v14.892h-2.482V6.427h-6.205zM189.87 18.32h2.999v1h-1v1.998h-1V19.32h-.999v-1zM195.782 19.526l1.085-1.085v-.121h1v2.998h-1v-1.463l-.378.378.005.006-.706.707-.92-.92v1.293h-1v-3h1v.293l.914.914z" fill="#fff"/></svg><svg viewBox="0 0 900 600" id="france" xmlns="http://www.w3.org/2000/svg"><path fill="#ED2939" d="M0 0h900v600H0z"/><path fill="#fff" d="M0 0h600v600H0z"/><path fill="#002395" d="M0 0h300v600H0z"/></svg><svg fill="none" viewBox="0 0 36 15" id="googlepay" xmlns="http://www.w3.org/2000/svg"><path fill-rule="evenodd" clip-rule="evenodd" d="M16.362 11.874V7.681h2.164c.887 0 1.635-.297 2.245-.883l.147-.149a3.019 3.019 0 00-.146-4.226 3.089 3.089 0 00-2.246-.9h-3.474v10.351h1.31zm0-5.464V2.794h2.197c.472 0 .92.182 1.253.512a1.84 1.84 0 01.04 2.567 1.7 1.7 0 01-1.293.537h-2.197zm10.666-1.065c-.561-.52-1.326-.784-2.294-.784-1.245 0-2.18.462-2.799 1.378l1.155.735c.424-.628 1.001-.941 1.733-.941.464 0 .912.173 1.262.487.341.297.537.726.537 1.18v.306c-.505-.281-1.14-.43-1.92-.43-.912 0-1.644.215-2.19.652-.544.438-.821 1.016-.821 1.75a2.203 2.203 0 00.773 1.734c.513.462 1.163.693 1.928.693.903 0 1.62-.404 2.165-1.213h.056v.982h1.253V7.507c0-.916-.276-1.642-.838-2.162zm-3.555 5.225a1.076 1.076 0 01-.431-.867c0-.388.179-.71.529-.966.358-.256.805-.388 1.334-.388.733-.008 1.302.157 1.71.487 0 .562-.22 1.049-.652 1.461-.39.397-.92.62-1.473.62a1.586 1.586 0 01-1.017-.347zm7.209 4.416l4.377-10.194h-1.424l-2.026 5.085h-.024L29.51 4.792h-1.424l2.872 6.628-1.627 3.566h1.35z" fill="#3C4043"/><path d="M11.84 6.772c0-.404-.033-.809-.098-1.205H6.218v2.286h3.165A2.755 2.755 0 018.21 9.661v1.486H10.1c1.106-1.032 1.74-2.559 1.74-4.375z" fill="#4285F4"/><path d="M6.218 12.584c1.578 0 2.913-.528 3.88-1.436L8.212 9.662c-.529.363-1.204.57-1.993.57-1.53 0-2.823-1.049-3.287-2.452H.986v1.535a5.843 5.843 0 005.232 3.269z" fill="#34A853"/><path d="M2.93 7.78a3.635 3.635 0 010-2.279V3.974H.987a5.968 5.968 0 000 5.333l1.945-1.528z" fill="#FBBC04"/><path d="M6.218 3.05a3.128 3.128 0 012.246.891l1.676-1.7A5.61 5.61 0 006.218.697C4.005.697 1.979 1.968.986 3.974L2.931 5.51c.464-1.412 1.757-2.46 3.287-2.46z" fill="#EA4335"/></svg><svg fill="none" viewBox="0 0 159 36" id="header-logo" xmlns="http://www.w3.org/2000/svg"><path d="M15.524 35.451l-.735-.267c-.393-.142-9.63-3.56-12.354-11.178C1.095 20.263.32 12.41.289 12.078L0 9.091l22.352 6.824-11.756 7.289-2.26-3.332 4.393-2.725-7.948-2.428c.33 2.53.882 6.037 1.586 8.004 1.702 4.756 7.161 7.556 9.157 8.44 1.993-.882 7.458-3.681 9.16-8.44.848-2.373 1.476-6.996 1.763-9.429L6.725 7.282 18.653.55l2.113 3.421-3.94 2.222 14.088 4.296-.152 1.59c-.035.332-.807 8.185-2.146 11.928-2.724 7.618-11.964 11.036-12.356 11.178l-.736.267z" fill="#FF6F42"/><path d="M45.312 26.062c.498 0 .929.077 1.293.23.37.152.653.369.85.65.199.28.298.613.298.998 0 .38-.1.712-.297.998-.198.28-.482.497-.851.65-.364.148-.795.222-1.293.222H44.18v1.426h-1.3v-5.174h2.432zm-.072 2.772c.39 0 .688-.076.891-.229.204-.158.305-.38.305-.665 0-.291-.101-.513-.305-.666-.203-.157-.5-.236-.89-.236h-1.06v1.796h1.06zM51.94 30.128h-2.61l-.497 1.108H47.5l2.505-5.174h1.284l2.513 5.174h-1.365l-.498-1.108zm-.41-.91l-.891-1.98-.891 1.98h1.782zM57.805 31.236l-1.084-1.441h-1.196v1.441h-1.3v-5.174h2.432c.498 0 .928.077 1.292.23.37.152.653.369.851.65.198.28.297.613.297.998 0 .384-.101.717-.305.998-.198.276-.481.487-.85.635l1.26 1.663h-1.397zm-.024-3.296c0-.291-.102-.513-.305-.666-.204-.157-.5-.236-.891-.236h-1.06v1.803h1.06c.39 0 .687-.078.89-.236.204-.158.306-.38.306-.665zM61.053 27.038h-1.798v-.976h4.897v.976h-1.799v4.198h-1.3v-4.198zM69.525 31.325c-.583 0-1.11-.116-1.581-.347a2.764 2.764 0 01-1.1-.954 2.493 2.493 0 01-.393-1.375c0-.507.13-.963.393-1.367.268-.41.634-.73 1.1-.961a3.536 3.536 0 011.581-.347c.584 0 1.108.115 1.574.347.465.232.832.552 1.1.96.267.405.4.86.4 1.368 0 .508-.133.966-.4 1.375a2.764 2.764 0 01-1.1.954c-.466.231-.99.347-1.574.347zm0-1.02c.332 0 .632-.069.9-.207.267-.143.476-.34.626-.591.155-.252.232-.537.232-.858a1.598 1.598 0 00-.859-1.441 1.878 1.878 0 00-.899-.214c-.332 0-.631.071-.899.214a1.583 1.583 0 00-.634.584c-.15.251-.225.537-.225.857 0 .32.075.606.225.858.155.251.367.448.634.591.268.138.567.207.9.207zM74.717 27.023v1.368h2.601v.96h-2.6v1.885h-1.301v-5.174h4.247v.961h-2.947zM100.457 28.695a1.299 1.299 0 00-.293-.308 2.176 2.176 0 00-.374-.226 3.665 3.665 0 00-.394-.164l-.398-.132c-.537-.177-1.435-.473-1.753-.631-.203-.102-.32-.251-.32-.41 0-.64 1.242-.845 2.554-.845h1.085l.152-.796s-.803-.007-1.675 0c-.815.005-1.638.076-1.876.127-.2.043-.4.1-.593.17-.183.066-.36.15-.527.249a1.998 1.998 0 00-.426.335c-.13.134-.23.29-.302.463a1.1 1.1 0 00-.086.397c-.003.181.04.35.13.502.063.11.151.208.27.303.122.096.255.166.357.217.109.054.233.104.377.154.12.042.252.082.413.127.144.04.293.078.431.114l.065.016.364.095c.16.043.29.08.406.118.138.045.256.088.36.132.045.02.09.04.133.061.097.051.176.103.24.156l.04.038c.034.036.06.073.08.111.012.03.021.06.027.09a.56.56 0 01-.004.12c-.073.358-.435.765-2.562.765l-1.164.001c-.763.001-1.615.002-2.015.001a118.69 118.69 0 01-.64-.822l-.359-.474a2.293 2.293 0 001.073-.277c.473-.256.863-.659 1.068-1.107.227-.493.242-1.006.042-1.406a1.339 1.339 0 00-.445-.516 1.52 1.52 0 00-.67-.249c-.036-.004-.105-.014-2.021-.017-1.237-.002-3.008 0-3.026 0h-.203l-.213.8h.736l-1.06 4.066c-.635-.004-2.552-.017-2.915-.017-.323 0-.582-.045-.794-.14a1.555 1.555 0 01-.382-.246 1.487 1.487 0 01-.272-.347 1.536 1.536 0 01-.148-.433 1.892 1.892 0 01-.01-.508c.024-.182.073-.367.144-.55.075-.182.171-.36.288-.53.117-.164.254-.323.407-.468.424-.407 1.258-.837 2.324-.827h.958l.214-.8h-2.06c-.683 0-1.254.109-1.748.335-.493.225-.95.56-1.321.969-.38.415-.657.9-.802 1.401-.147.509-.152 1.037-.01 1.489.14.45.391.797.77 1.062.42.295.966.427 1.767.427a456.555 456.555 0 002.484.008c.465 0 .906-.002 1.23-.006.65-.009 1.286-.498 1.447-1.114l.984-3.77h2.089c.373 0 .599.194.67.54a.86.86 0 01.012.259 1.105 1.105 0 01-.135.43c-.095.174-.2.276-.25.324v.001c-.087.08-.165.14-.243.19a1.831 1.831 0 01-.28.14 1.503 1.503 0 01-.284.067 2.016 2.016 0 01-.122.008h-1.237l-.314 1.21.584-.318 1.224 1.628c.194.257.513.405.874.405h4.862c.951 0 1.72-.142 2.287-.422.449-.222.752-.53.832-.845.042-.168.052-.335.027-.498a.978.978 0 00-.155-.402z" fill="#fff"/><path fill-rule="evenodd" clip-rule="evenodd" d="M42.88 17.501V3.54h7.837c2.409 0 5.19.125 6.442 2.183.4.658.68 1.496.68 2.554 0 3.74-2.993 4.737-2.993 4.737l3.49 4.487h-4.985l-2.493-3.989h-3.99v3.989H42.88zm3.989-11.468v4.986h4.487s2.493 0 2.493-2.493-2.493-2.493-2.493-2.493H46.87zM77.782 17.501V3.54h9.972s3.99 0 3.99 3.49-3.99 3.49-3.99 3.49 4.986 0 4.986 3.49c0 3.491-4.986 3.491-4.986 3.491h-9.972zm3.99-8.476V6.033h3.988s1.496 0 1.496 1.496-1.496 1.496-1.496 1.496h-3.989zm4.985 6.482h-4.986v-2.992h4.986s1.496 0 1.496 1.496-1.496 1.496-1.496 1.496z" fill="#fff"/><path d="M60.83 3.54h12.963v2.493H64.82v2.992h7.977v2.991H64.82v2.992h8.974v2.493H60.83V3.54z" fill="#fff"/><path fill-rule="evenodd" clip-rule="evenodd" d="M112.685 10.52c0 3.856-4.018 6.981-8.975 6.981s-8.975-3.125-8.975-6.98c0-3.856 4.018-6.981 8.975-6.981s8.975 3.125 8.975 6.98zm-3.49 0c0 2.204-2.456 3.99-5.485 3.99-3.029 0-5.485-1.787-5.485-3.99 0-2.202 2.456-3.988 5.485-3.988 3.029 0 5.485 1.786 5.485 3.989z" fill="#fff"/><path d="M130.635 17.501h-4.986l-3.74-4.188-3.74 4.188h-4.986l6.233-6.98-6.233-6.981h4.986l12.466 13.961zM130.635 3.54h-4.986l-2.743 3.071 2.493 2.793 5.236-5.864zM135.621 3.54h1.994v13.961h-1.994V3.54zM139.61 5.534V3.54h11.966v1.994h-4.986v11.967h-1.994V5.534h-4.986zM152.573 15.091h2.41v.803h-.803v1.607h-.803v-1.607h-.804v-.803zM157.324 16.06l.872-.871v-.098H159v2.41h-.804v-1.176l-.304.304.005.004-.568.568-.739-.739v1.039h-.803v-2.41h.803v.235l.734.735z" fill="#fff"/></svg><svg fill="none" viewBox="0 0 33 21" id="mastercard" xmlns="http://www.w3.org/2000/svg"><path fill-rule="evenodd" clip-rule="evenodd" d="M16.511 17.816a9.371 9.371 0 01-6.144 2.289c-5.23 0-9.471-4.29-9.471-9.582C.896 5.23 5.136.94 10.367.94a9.37 9.37 0 016.144 2.289A9.37 9.37 0 0122.655.94c5.231 0 9.472 4.29 9.472 9.583 0 5.292-4.24 9.582-9.472 9.582a9.371 9.371 0 01-6.144-2.29z" fill="#ED0006"/><path fill-rule="evenodd" clip-rule="evenodd" d="M16.512 17.816a9.606 9.606 0 003.328-7.293 9.606 9.606 0 00-3.328-7.293A9.37 9.37 0 0122.656.94c5.23 0 9.471 4.29 9.471 9.583 0 5.292-4.24 9.582-9.471 9.582a9.371 9.371 0 01-6.144-2.29z" fill="#F9A000"/><path fill-rule="evenodd" clip-rule="evenodd" d="M16.512 17.816a9.606 9.606 0 003.327-7.293 9.606 9.606 0 00-3.327-7.293 9.606 9.606 0 00-3.328 7.293 9.606 9.606 0 003.328 7.293z" fill="#FF5E00"/></svg><svg fill="none" viewBox="0 0 169 56" id="microsoft" xmlns="http://www.w3.org/2000/svg"><path d="M24.773 26.957l-.035-14.386-7.05 11.851h-2.5L8.172 12.88v14.078H2.969V2.98h4.586l8.968 14.9 8.832-14.9h4.552l.068 23.977h-5.202zm10.51-18.428h5.34v18.428h-5.34V8.529zm2.67-2.569c-.98 0-1.78-.285-2.396-.856a2.778 2.778 0 01-.924-2.124c0-.845.308-1.553.924-2.124C36.173.286 36.972 0 37.953 0c.982 0 1.78.274 2.396.822.617.548.925 1.233.925 2.055 0 .89-.309 1.633-.925 2.227-.616.57-1.414.856-2.396.856zM54.48 27.231c-1.963 0-3.731-.4-5.306-1.199-1.552-.822-2.772-1.952-3.662-3.39-.867-1.44-1.301-3.072-1.301-4.899s.434-3.46 1.3-4.898c.89-1.439 2.111-2.558 3.663-3.357 1.575-.822 3.343-1.233 5.306-1.233 1.94 0 3.628.411 5.066 1.233 1.46.8 2.521 1.953 3.183 3.46l-4.142 2.226c-.958-1.69-2.339-2.535-4.142-2.535-1.392 0-2.544.457-3.457 1.37-.913.914-1.369 2.158-1.369 3.734s.456 2.82 1.37 3.734c.912.913 2.064 1.37 3.456 1.37 1.826 0 3.206-.845 4.142-2.535l4.142 2.26c-.662 1.462-1.723 2.604-3.184 3.426-1.437.822-3.126 1.233-5.065 1.233zm16.423-16.27c.64-.89 1.495-1.564 2.567-2.021 1.096-.457 2.35-.685 3.766-.685v4.932a19.23 19.23 0 00-1.198-.068c-1.53 0-2.727.434-3.595 1.302-.867.844-1.3 2.123-1.3 3.836v8.7h-5.34V8.529h5.1v2.432zm18.103 16.27c-1.94 0-3.685-.4-5.237-1.199-1.529-.822-2.727-1.952-3.594-3.39-.867-1.44-1.3-3.072-1.3-4.899s.433-3.46 1.3-4.898c.867-1.439 2.065-2.558 3.594-3.357 1.552-.822 3.297-1.233 5.237-1.233s3.674.411 5.203 1.233c1.529.8 2.727 1.918 3.594 3.357.867 1.438 1.3 3.071 1.3 4.898 0 1.827-.433 3.46-1.3 4.898-.867 1.439-2.065 2.57-3.594 3.391-1.529.8-3.263 1.2-5.203 1.2zm0-4.384c1.37 0 2.487-.457 3.355-1.37.89-.937 1.334-2.181 1.334-3.734s-.445-2.786-1.335-3.7c-.867-.936-1.985-1.404-3.354-1.404-1.37 0-2.499.468-3.389 1.405-.89.913-1.335 2.146-1.335 3.699s.445 2.797 1.335 3.734c.89.913 2.02 1.37 3.39 1.37zm19.862 4.384c-1.529 0-3.023-.183-4.484-.548-1.46-.388-2.624-.868-3.491-1.439l1.78-3.836c.821.525 1.814.96 2.978 1.302 1.163.32 2.304.48 3.423.48 2.259 0 3.388-.56 3.388-1.68 0-.524-.308-.901-.924-1.13-.616-.228-1.563-.422-2.841-.582-1.506-.228-2.75-.49-3.731-.788a5.907 5.907 0 01-2.567-1.575c-.708-.754-1.061-1.827-1.061-3.22 0-1.165.331-2.192.992-3.083.685-.913 1.666-1.621 2.944-2.123 1.301-.503 2.83-.754 4.587-.754 1.3 0 2.59.148 3.868.445 1.3.274 2.373.662 3.217 1.165l-1.78 3.802c-1.62-.913-3.388-1.37-5.305-1.37-1.141 0-1.997.16-2.567.48-.571.319-.856.73-.856 1.232 0 .571.308.97.924 1.2.616.228 1.597.445 2.944.65 1.506.251 2.738.525 3.696.822a5.418 5.418 0 012.499 1.542c.708.753 1.061 1.803 1.061 3.15a4.866 4.866 0 01-1.027 3.05c-.684.89-1.688 1.586-3.012 2.089-1.3.48-2.852.72-4.655.72zm20.751 0c-1.939 0-3.685-.4-5.237-1.199-1.529-.822-2.727-1.952-3.594-3.39-.867-1.44-1.3-3.072-1.3-4.899s.433-3.46 1.3-4.898c.867-1.439 2.065-2.558 3.594-3.357 1.552-.822 3.298-1.233 5.237-1.233 1.94 0 3.674.411 5.203 1.233 1.529.8 2.727 1.918 3.594 3.357.867 1.438 1.301 3.071 1.301 4.898 0 1.827-.434 3.46-1.301 4.898-.867 1.439-2.065 2.57-3.594 3.391-1.529.8-3.263 1.2-5.203 1.2zm0-4.384c1.369 0 2.488-.457 3.355-1.37.89-.937 1.335-2.181 1.335-3.734s-.445-2.786-1.335-3.7c-.867-.936-1.986-1.404-3.355-1.404s-2.498.468-3.388 1.405c-.89.913-1.335 2.146-1.335 3.699s.445 2.797 1.335 3.734c.89.913 2.019 1.37 3.388 1.37zm19.52-13.907h4.724v4.11h-4.587v13.907h-5.34V13.05h-2.841V8.94h2.841v-.822c0-2.1.616-3.768 1.849-5.001 1.255-1.233 3.012-1.85 5.271-1.85.799 0 1.552.092 2.259.274.73.16 1.335.4 1.814.72l-1.403 3.87c-.616-.434-1.335-.65-2.157-.65-1.62 0-2.43.89-2.43 2.671v.788zM168.4 26.067c-.525.388-1.175.684-1.951.89-.753.183-1.552.274-2.396.274-2.191 0-3.891-.56-5.1-1.678-1.187-1.12-1.78-2.763-1.78-4.933v-7.57h-2.841V8.94h2.841V4.453h5.339V8.94h4.587v4.11h-4.587v7.502c0 .776.194 1.381.582 1.815.411.411.981.617 1.712.617.844 0 1.563-.229 2.156-.685l1.438 3.768z" fill="#3C9DE3"/><path d="M11.815 51.721H4.488l-1.37 3.146H0l6.592-14.513h3.17l6.566 14.513H13.16l-1.344-3.146zm-1.04-2.435l-2.61-6.04-2.612 6.04h5.223zm15.75 5.835c-2.08 0-3.702-.575-4.868-1.725-1.167-1.15-1.75-2.732-1.75-4.745v-8.297h3.195v8.196c0 1.251.296 2.207.887 2.867.592.66 1.445.99 2.561.99 1.099 0 1.935-.322 2.51-.965.592-.66.888-1.624.888-2.892v-8.196h3.144v8.297c0 2.03-.575 3.62-1.725 4.77-1.149 1.133-2.763 1.7-4.842 1.7zm15.532-12.153h-4.766v-2.614h12.728v2.614h-4.767v11.9h-3.195v-11.9zm12.291-2.614h3.195v5.836h6.973v-5.836h3.194v14.513h-3.194V48.83h-6.973v6.038h-3.195V40.354zM80.95 55.121c-1.504 0-2.865-.321-4.082-.964-1.217-.66-2.172-1.556-2.865-2.69-.693-1.15-1.04-2.435-1.04-3.856 0-1.421.347-2.698 1.04-3.831a7.202 7.202 0 012.865-2.69c1.217-.643 2.578-.964 4.082-.964 1.521 0 2.89.321 4.108.964a7.202 7.202 0 012.865 2.69c.693 1.133 1.04 2.41 1.04 3.83 0 1.422-.347 2.707-1.04 3.858-.693 1.133-1.648 2.03-2.865 2.689-1.217.643-2.587.964-4.108.964zm0-2.715c.913 0 1.733-.203 2.46-.609a4.498 4.498 0 001.698-1.725c.406-.727.609-1.548.609-2.461 0-.913-.203-1.734-.609-2.461a4.322 4.322 0 00-1.699-1.7c-.726-.406-1.546-.61-2.459-.61-.896 0-1.707.212-2.434.635a4.499 4.499 0 00-1.724 1.7c-.406.71-.609 1.523-.609 2.436s.203 1.734.609 2.461a4.687 4.687 0 001.724 1.725c.727.406 1.538.61 2.434.61zm22.666 2.461l-2.916-4.11h-3.321v4.11h-3.195V40.354h6.263c1.96 0 3.507.465 4.64 1.396 1.132.913 1.698 2.19 1.698 3.831 0 1.083-.262 2.021-.786 2.816-.524.779-1.276 1.37-2.256 1.776l3.321 4.694h-3.448zm-.051-9.286c0-.863-.287-1.514-.862-1.954-.558-.456-1.386-.685-2.485-.685h-2.84v5.303h2.84c1.099 0 1.927-.228 2.485-.685.575-.457.862-1.116.862-1.979zm8.791-5.227h3.195v14.513h-3.195V40.354zM126.5 55.121a12.47 12.47 0 01-3.347-.457c-1.099-.304-1.97-.702-2.612-1.192l1.192-2.487c.608.457 1.352.82 2.231 1.091.879.271 1.775.406 2.688.406.997 0 1.724-.143 2.18-.43.473-.305.71-.703.71-1.193 0-.542-.27-.94-.811-1.193-.524-.254-1.344-.49-2.46-.71-1.132-.254-2.053-.508-2.763-.762a4.388 4.388 0 01-1.801-1.243c-.507-.575-.76-1.353-.76-2.334 0-.897.245-1.683.735-2.36.507-.676 1.226-1.2 2.155-1.573.93-.372 2.02-.558 3.271-.558.947 0 1.868.11 2.764.33.896.203 1.665.507 2.307.913l-1.09 2.487c-1.15-.745-2.51-1.117-4.082-1.117-.964 0-1.682.161-2.156.482-.473.305-.709.71-.709 1.218 0 .542.262.94.786 1.193.54.237 1.377.473 2.51.71 1.115.254 2.02.508 2.713.761a4.262 4.262 0 011.8 1.193c.507.558.76 1.32.76 2.284 0 1.387-.557 2.494-1.673 3.323-1.099.812-2.612 1.218-4.538 1.218zm22.49-2.816v2.562h-11.258V40.354h10.979v2.588h-7.784v3.324h6.922v2.487h-6.922v3.552h8.063zm5.33-11.95h6.566c1.623 0 3.043.295 4.26.887 1.234.592 2.181 1.438 2.84 2.538.676 1.082 1.014 2.36 1.014 3.83 0 1.473-.338 2.758-1.014 3.858-.659 1.082-1.606 1.92-2.84 2.511-1.217.592-2.637.888-4.26.888h-6.566V40.354zm6.465 11.924c1.555 0 2.772-.406 3.651-1.218.896-.828 1.344-1.978 1.344-3.45 0-1.472-.448-2.613-1.344-3.425-.879-.812-2.096-1.218-3.651-1.218h-3.271v9.311h3.271z" fill="#171717"/></svg><svg fill="none" viewBox="0 0 28 25" id="paypal" xmlns="http://www.w3.org/2000/svg"><path fill-rule="evenodd" clip-rule="evenodd" d="M3.36 17.155H1.2a.3.3 0 00-.296.253L.03 22.945a.18.18 0 00.178.208h1.03a.3.3 0 00.297-.254l.236-1.493a.3.3 0 01.296-.254h.683c1.423 0 2.244-.688 2.458-2.052.097-.597.004-1.066-.275-1.394-.307-.36-.852-.551-1.574-.551zm.249 2.022c-.118.775-.71.775-1.283.775H2l.23-1.447a.18.18 0 01.177-.152h.15c.39 0 .757 0 .947.222.113.133.148.33.105.602zm6.205-.025H8.78a.18.18 0 00-.177.152l-.046.29-.073-.105c-.223-.325-.723-.434-1.22-.434-1.144 0-2.12.866-2.31 2.08-.098.605.042 1.184.386 1.588.315.371.766.526 1.302.526.92 0 1.431-.592 1.431-.592l-.046.287a.18.18 0 00.178.209h.931a.3.3 0 00.297-.254l.558-3.539a.18.18 0 00-.177-.208zm-1.441 2.013c-.1.59-.569.987-1.167.987-.3 0-.54-.096-.694-.279-.153-.18-.21-.439-.162-.726.093-.586.57-.995 1.159-.995.293 0 .532.097.69.281.157.186.22.446.174.732zm5.91-2.013h1.039a.18.18 0 01.147.283l-3.456 4.988a.3.3 0 01-.246.13h-1.038a.18.18 0 01-.147-.285l1.076-1.519-1.144-3.359a.18.18 0 01.17-.238h1.021a.3.3 0 01.288.214l.608 2.029 1.433-2.111a.3.3 0 01.248-.132z" fill="#253B80"/><path fill-rule="evenodd" clip-rule="evenodd" d="M25.549 22.945l.886-5.638a.18.18 0 01.178-.152h.997a.18.18 0 01.178.208l-.874 5.537a.3.3 0 01-.297.253h-.89a.18.18 0 01-.178-.208zm-6.787-5.79h-2.16a.3.3 0 00-.296.253l-.873 5.537a.18.18 0 00.178.208h1.108a.21.21 0 00.207-.177l.248-1.57a.3.3 0 01.296-.253h.683c1.423 0 2.243-.689 2.458-2.053.097-.596.004-1.065-.276-1.394-.306-.36-.85-.55-1.573-.55zm.25 2.022c-.119.775-.71.775-1.283.775h-.326l.23-1.447a.18.18 0 01.177-.152h.149c.39 0 .758 0 .948.223.113.132.148.33.104.601zm6.204-.024h-1.033a.18.18 0 00-.178.152l-.045.289-.073-.105c-.224-.325-.723-.434-1.22-.434-1.144 0-2.12.866-2.31 2.08-.098.605.042 1.184.386 1.588.315.372.766.526 1.302.526.92 0 1.431-.592 1.431-.592l-.046.288a.18.18 0 00.178.208h.931a.3.3 0 00.296-.253l.56-3.54a.18.18 0 00-.179-.207zm-1.441 2.012c-.1.59-.569.987-1.167.987-.3 0-.54-.096-.694-.278-.153-.181-.21-.44-.162-.727.093-.586.57-.995 1.158-.995.294 0 .533.098.69.282.158.186.22.445.175.731z" fill="#179BD7"/><path d="M11.35 15.175l.266-1.686-.591-.014H8.2l1.963-12.442a.16.16 0 01.16-.136h4.76c1.58 0 2.671.328 3.24.978.268.304.438.622.52.973.086.367.088.806.004 1.342l-.006.039v.343l.267.151c.224.12.403.256.54.412.229.26.376.592.439.984.064.404.043.884-.063 1.427-.121.626-.318 1.17-.584 1.616-.245.41-.557.751-.927 1.015-.353.25-.773.441-1.247.563-.46.12-.985.18-1.56.18h-.37c-.265 0-.523.096-.724.267a1.121 1.121 0 00-.378.674l-.028.152-.47 2.971-.02.11c-.006.034-.016.052-.03.063a.079.079 0 01-.049.018h-2.287z" fill="#253B80"/><path d="M19.361 4.269a8.22 8.22 0 01-.048.279c-.628 3.223-2.776 4.337-5.52 4.337h-1.397a.678.678 0 00-.67.575l-.715 4.535-.203 1.286a.357.357 0 00.353.413h2.478a.596.596 0 00.588-.502l.025-.126.466-2.96.03-.163a.595.595 0 01.589-.503h.37c2.4 0 4.28-.975 4.829-3.795.23-1.178.11-2.162-.497-2.854a2.366 2.366 0 00-.678-.522z" fill="#179BD7"/><path d="M18.704 4.006a4.914 4.914 0 00-.61-.135c-.377-.061-.79-.09-1.232-.09h-3.731a.592.592 0 00-.589.503l-.794 5.028-.022.147a.678.678 0 01.67-.574h1.397c2.744 0 4.892-1.115 5.52-4.338.018-.095.034-.188.048-.279a3.349 3.349 0 00-.657-.262z" fill="#222D65"/><path d="M12.543 4.284a.594.594 0 01.588-.503h3.732c.442 0 .855.03 1.231.09a4.964 4.964 0 01.752.18c.185.06.357.133.516.217.187-1.191-.001-2.002-.645-2.737-.71-.808-1.992-1.155-3.632-1.155h-4.761a.68.68 0 00-.673.576l-1.983 12.57a.409.409 0 00.404.473h2.94l.737-4.683.794-5.028z" fill="#253B80"/></svg><svg fill="none" viewBox="0 0 37 16" id="stripe" xmlns="http://www.w3.org/2000/svg"><path fill-rule="evenodd" clip-rule="evenodd" d="M20.103 2.302l-2.468.53V.83l2.468-.52v1.992zm-10.029-.854l-2.399.51-.01 7.857c0 1.451 1.092 2.52 2.547 2.52.806 0 1.396-.147 1.72-.323V10.02c-.314.127-1.867.578-1.867-.873V5.666h1.868v-2.09h-1.868l.01-2.128zm26.262 6.454c0-2.51-1.219-4.492-3.55-4.492-2.34 0-3.755 1.981-3.755 4.473 0 2.952 1.671 4.443 4.07 4.443 1.17 0 2.055-.265 2.724-.638V9.727c-.669.333-1.436.54-2.409.54-.954 0-1.8-.334-1.907-1.492h4.808c0-.054.003-.177.007-.318.006-.193.012-.42.012-.555zM31.48 6.97c0-1.108.678-1.57 1.298-1.57.6 0 1.239.462 1.239 1.57h-2.537zM4.264 5.54c-.521 0-.836.147-.836.53 0 .417.541.6 1.213.828 1.095.372 2.537.861 2.543 2.673 0 1.755-1.406 2.766-3.451 2.766-.846 0-1.77-.167-2.684-.56V9.443c.825.451 1.868.785 2.684.785.55 0 .944-.147.944-.598 0-.463-.587-.675-1.296-.93C2.301 8.31.941 7.82.941 6.186.94 4.45 2.267 3.41 4.263 3.41c.816 0 1.622.128 2.438.451v2.305c-.747-.402-1.691-.627-2.438-.627zM14.99 4.302l-.158-.726H12.71v8.583h2.458V6.342c.58-.755 1.563-.618 1.868-.51V3.576c-.315-.117-1.465-.333-2.045.726zm2.644-.725h2.468v8.582h-2.468V3.577zm5.673.598c.345-.314.964-.765 1.928-.765 1.72 0 3.343 1.55 3.352 4.394 0 3.11-1.602 4.522-3.362 4.522-.865 0-1.387-.363-1.74-.618l-.01 2.776-2.458.52V3.566h2.163l.127.608zm.177 5.532c.236.255.58.46 1.16.46.905 0 1.515-.98 1.515-2.294 0-1.285-.62-2.286-1.514-2.286-.56 0-.915.197-1.17.481l.01 3.639z" fill="#6461FC"/></svg><svg fill="none" viewBox="0 0 36 34" id="trustpilot" xmlns="http://www.w3.org/2000/svg"><path d="M35.55 12.914H21.97L17.788 0l-4.206 12.914L0 12.889l10.984 7.99L6.78 33.793l10.984-7.99 10.984 7.99-4.18-12.914 10.984-7.965z" fill="#00B67A"/><path d="M25.507 23.799l-.94-2.92-6.779 4.923 7.719-2.003z" fill="#005128"/></svg><svg viewBox="0 0 9 6" id="uae" xmlns="http://www.w3.org/2000/svg"><path fill="#00732f" d="M0 0h9v6H0z"/><path fill="#fff" d="M0 2h9v4H0z"/><path d="M0 4h9v2H0z"/><path fill="red" d="M0 0h2.25v6H0z"/></svg><svg viewBox="0 0 60 40" id="uk" xmlns="http://www.w3.org/2000/svg"><defs><clipPath id="na"><path d="M30 15h30v15zm0 0v15H0zm0 0H0V0zm0 0V0h30z"/></clipPath></defs><path fill="#00247d" d="M0 0h60v40H0z"/><g stroke="#fff" stroke-width="6.932" fill="none"><path d="M0 0l60 40m0-40L0 40"/><path d="M0 0l60 30m0-30L0 30" clip-path="url(#na)" transform="scale(1 1.33333)" stroke="#cf142b" stroke-width="4"/><path d="M30 0v40M0 20h60" stroke-width="11.554"/><path d="M30 0v40M0 20h60" stroke="#cf142b"/></g></svg><svg fill="none" viewBox="0 0 35 12" id="visa" xmlns="http://www.w3.org/2000/svg"><path fill-rule="evenodd" clip-rule="evenodd" d="M9.493 11.568H6.55l-2.207-8.42c-.104-.387-.327-.73-.654-.891a9.58 9.58 0 00-2.698-.891V1.04h4.741c.655 0 1.146.487 1.227 1.053l1.145 6.074 2.942-7.126h2.862L9.492 11.567zm6.05 0h-2.78l2.29-10.526h2.78l-2.29 10.526zm5.885-7.61c.082-.568.573-.892 1.145-.892.9-.081 1.88.081 2.698.486l.49-2.267a7.036 7.036 0 00-2.533-.487c-2.698 0-4.661 1.458-4.661 3.482 0 1.54 1.39 2.348 2.372 2.835 1.062.485 1.47.81 1.389 1.295 0 .728-.818 1.052-1.634 1.052-.982 0-1.963-.242-2.862-.648l-.49 2.268c.981.404 2.043.567 3.024.567 3.025.08 4.905-1.377 4.905-3.563 0-2.754-3.843-2.915-3.843-4.129zm13.57 7.61L32.793 1.042h-2.37c-.491 0-.982.324-1.146.81l-4.087 9.716h2.862l.57-1.538h3.517l.327 1.538h2.534zM30.83 3.876l.817 3.967h-2.289l1.472-3.967z" fill="#172B85"/></svg></svg>